
<svg id="Layer_1" data-name="Layer 1" xmlns="http://www.w3.org/2000/svg" viewBox="0 0 88.4 101.46">
  <defs>
    <style>
      .cls-1 {
        
        stroke-miterlimit: 10;
        stroke-width: 1.5px;
      }
    </style>
  </defs>
  <path class="cls-1" d="m44.2,51.34c-.09,0-.17-.02-.25-.07L1,26.48c-.15-.09-.25-.25-.25-.43s.1-.34.25-.43L43.95.82c.15-.09.35-.09.5,0l42.95,24.8c.15.09.25.25.25.43s-.1.34-.25.43l-42.95,24.8c-.08.04-.16.07-.25.07ZM2.25,26.05l41.95,24.22,41.95-24.22L44.2,1.83,2.25,26.05Z"/>
  <path class="cls-1" d="m44.2,100.71c-.09,0-.17-.02-.25-.07L1,75.85c-.15-.09-.25-.25-.25-.43V26.05c0-.18.1-.34.25-.43.15-.09.35-.09.5,0l42.95,24.8c.15.09.25.25.25.43v49.37c0,.18-.1.34-.25.43-.08.04-.16.07-.25.07ZM1.75,75.13l41.95,24.22v-48.21L1.75,26.91v48.21Z"/>
  <path class="cls-1" d="m44.2,100.71c-.09,0-.17-.02-.25-.07-.15-.09-.25-.25-.25-.43v-49.37c0-.18.1-.34.25-.43l42.95-24.8c.15-.09.35-.09.5,0,.15.09.25.25.25.43v49.37c0,.18-.1.34-.25.43l-42.95,24.8c-.08.04-.16.07-.25.07Zm.5-49.58v48.21l41.95-24.22V26.91l-41.95,24.22Z"/>
</svg>