
<svg id="Layer_1" data-name="Layer 1" xmlns="http://www.w3.org/2000/svg" viewBox="0 0 85.9 85.9">
  <defs>
    <style>
      .cls-1 {
        
        stroke-miterlimit: 10;
        stroke-width: 1.5px;
      }
    </style>
  </defs>
  <path class="cls-1" d="m42.95,11.63s-.07,0-.11-.01l-22.28-4.87c-.18-.04-.32-.17-.37-.35-.05-.18,0-.36.13-.49L25.32.9c.09-.09.22-.15.35-.15h34.54c.13,0,.26.05.35.15l5.01,5.01c.13.13.18.32.13.49-.05.18-.19.31-.37.35l-22.28,4.87s-.07.01-.11.01Zm-21.28-5.66l21.28,4.65,21.28-4.65-4.21-4.21H25.88l-4.21,4.21Z"/>
  <path class="cls-1" d="m60.22,85.15H25.68c-.23,0-.43-.16-.49-.38l-7.84-31.34c-.06-.24.07-.49.29-.58l25.11-10.36c.12-.05.26-.05.38,0l25.12,10.36c.23.09.35.34.29.58l-7.84,31.34c-.06.22-.26.38-.49.38Zm-34.15-1h33.76l7.65-30.54-24.53-10.12-24.52,10.12,7.64,30.54Z"/>
  <path class="cls-1" d="m17.84,53.81c-.17,0-.34-.09-.43-.24L.82,25.93c-.12-.2-.09-.45.08-.61L20.32,5.9c.12-.12.29-.17.46-.13l22.28,4.87c.23.05.39.25.39.49v31.82c0,.2-.12.38-.31.46l-25.11,10.36c-.06.03-.13.04-.19.04ZM1.88,25.75l16.17,26.93,24.4-10.07V11.53s-21.62-4.73-21.62-4.73L1.88,25.75Z"/>
  <path class="cls-1" d="m68.07,53.81c-.06,0-.13-.01-.19-.04l-25.12-10.36c-.19-.08-.31-.26-.31-.46V11.13c0-.23.16-.44.39-.49l22.28-4.87c.16-.04.34.01.46.13l19.42,19.42c.16.16.19.41.08.61l-16.58,27.63c-.09.16-.26.24-.43.24Zm-24.62-11.2l24.41,10.07,16.16-26.93-18.95-18.95-21.62,4.73v31.08Z"/>
  <path class="cls-1" d="m25.68,85.15c-.13,0-.26-.05-.35-.15l-18.08-18.08s-.08-.1-.11-.16L.79,51.43c-.03-.06-.04-.13-.04-.19v-25.57c0-.22.15-.42.37-.48.22-.06.45.03.56.22l16.44,27.31s.04.09.06.14l7.99,31.66c.06.22-.04.45-.24.56-.08.04-.16.07-.25.07Zm-17.66-18.86l16.73,16.73-7.53-29.83L1.75,27.48v23.67l6.27,15.14Z"/>
  <path class="cls-1" d="m60.22,85.15c-.08,0-.17-.02-.25-.07-.2-.11-.29-.34-.24-.56l7.99-31.66s.03-.09.06-.14l16.44-27.31c.12-.19.35-.29.56-.22.22.06.37.26.37.48v25.59c0,.07-.01.13-.04.19l-6.33,15.29c-.03.06-.06.12-.11.16l-18.09,18.09c-.1.1-.22.15-.35.15Zm8.45-31.97l-7.53,29.83,16.74-16.74,6.26-15.11v-23.69l-15.47,25.7Z"/>
</svg>