
<svg id="Layer_1" data-name="Layer 1" xmlns="http://www.w3.org/2000/svg" viewBox="0 0 95.41 95.41">
  <defs>
    <style>
      .cls-1 {
       
        stroke-miterlimit: 10;
        stroke-width: 1.5px;
      }
    </style>
  </defs>
  <g>
    <path class="cls-1" d="m47.71,94.66c-.13,0-.26-.05-.35-.15L.9,48.06c-.16-.16-.19-.41-.08-.61.12-.2.36-.29.57-.22l46.46,14.05c.21.06.36.26.36.48v32.41c0,.2-.12.38-.31.46-.06.03-.13.04-.19.04ZM3.01,48.76l44.19,44.19v-30.83L3.01,48.76Z"/>
    <path class="cls-1" d="m47.71,62.26s-.1,0-.14-.02L1.11,48.19c-.17-.05-.3-.19-.34-.36-.04-.17,0-.35.13-.48L47.35.9c.14-.14.36-.19.54-.11.19.08.31.26.31.46v60.5c0,.16-.08.31-.2.4-.09.06-.19.1-.3.1ZM2.19,47.47l45.01,13.61V2.46L2.19,47.47Z"/>
  </g>
  <g>
    <path class="cls-1" d="m47.71,94.66c-.06,0-.13-.01-.19-.04-.19-.08-.31-.26-.31-.46v-32.41c0-.22.14-.42.36-.48l46.46-14.05c.22-.07.46.03.57.22.12.2.09.45-.08.61l-46.46,46.46c-.1.1-.22.15-.35.15Zm.5-32.54v30.83l44.19-44.19-44.19,13.36Z"/>
    <path class="cls-1" d="m47.71,62.26c-.11,0-.21-.03-.3-.1-.13-.09-.2-.24-.2-.4V1.25c0-.2.12-.38.31-.46.19-.08.4-.03.54.11l46.46,46.46c.12.12.17.3.13.48-.04.17-.17.31-.34.36l-46.46,14.05s-.1.02-.14.02Zm.5-59.8v58.62l45.01-13.61L48.21,2.46Z"/>
  </g>
</svg>