
<svg id="Layer_1" data-name="Layer 1" xmlns="http://www.w3.org/2000/svg" viewBox="0 0 85.9 98.8">
  <defs>
    <style>
      .cls-1 {
        
        stroke-miterlimit: 10;
        stroke-width: 1.5px;
      }
    </style>
  </defs>
  <path class="cls-1" d="m68.72,41.47H17.18c-.18,0-.35-.1-.44-.26-.09-.16-.08-.36.02-.51L42.53.98c.19-.28.65-.28.84,0l25.77,39.72c.1.15.11.35.02.51-.09.16-.26.26-.44.26Zm-50.62-1h49.7L42.95,2.17l-24.85,38.3Z"/>
  <path class="cls-1" d="m42.95,79.27s-.04,0-.06,0L1.19,74.22c-.16-.02-.3-.12-.38-.26-.08-.14-.08-.31,0-.46l15.93-32.75c.08-.16.24-.27.41-.28.18,0,.35.07.45.22l25.77,37.79c.11.16.12.37.01.54-.09.15-.25.24-.43.24Zm-40.94-5.95l39.91,4.82-24.67-36.17-15.24,31.35Z"/>
  <path class="cls-1" d="m1.25,74.23s-.07,0-.11-.01c-.23-.05-.39-.25-.39-.49V25.21c0-.2.12-.38.31-.46.19-.08.4-.04.54.11l15.93,15.77c.15.15.19.38.1.57L1.7,73.95c-.08.17-.26.28-.45.28Zm.5-47.82v45.15l14.82-30.48L1.75,26.41Z"/>
  <path class="cls-1" d="m42.95,79.27c-.17,0-.34-.09-.43-.24-.1-.17-.1-.38.01-.54l25.77-37.79c.1-.15.27-.23.45-.22.18.01.34.12.41.28l15.93,32.75c.07.15.07.32,0,.46-.08.14-.22.24-.38.26l-41.7,5.04s-.04,0-.06,0Zm25.7-37.3l-24.67,36.17,39.91-4.82-15.24-31.35Z"/>
  <path class="cls-1" d="m84.65,74.23c-.19,0-.36-.11-.45-.28l-15.93-32.75c-.09-.19-.05-.42.1-.57l15.93-15.77c.14-.14.36-.18.54-.11.19.08.31.26.31.46v48.52c0,.23-.16.43-.39.49-.04,0-.08.01-.11.01Zm-15.32-33.15l14.82,30.48V26.41l-14.82,14.67Z"/>
  <path class="cls-1" d="m17.18,41.47c-.13,0-.26-.05-.35-.14L.9,25.56c-.11-.11-.16-.27-.14-.42.02-.15.11-.29.25-.37L42.7.82c.2-.12.45-.08.61.09.16.17.18.42.06.62l-25.77,39.72c-.08.13-.22.21-.37.23-.02,0-.04,0-.05,0ZM2.07,25.31l15.02,14.87L41.4,2.72,2.07,25.31Z"/>
  <path class="cls-1" d="m68.72,41.47s-.04,0-.05,0c-.15-.02-.28-.1-.37-.23L42.53,1.52c-.12-.19-.1-.45.06-.62.16-.17.41-.21.61-.09l41.7,23.96c.14.08.23.21.25.37.02.15-.03.31-.14.42l-15.93,15.77c-.09.09-.22.14-.35.14ZM44.5,2.72l24.31,37.47,15.02-14.87L44.5,2.72Z"/>
  <path class="cls-1" d="m42.95,98.05c-.09,0-.17-.02-.25-.07-.15-.09-.25-.25-.25-.43v-18.78c0-.25.19-.47.44-.5l41.7-5.04c.23-.04.46.11.53.34.08.23-.02.47-.23.59l-41.7,23.82c-.08.04-.16.07-.25.07Zm.5-18.84v17.48l38.8-22.17-38.8,4.69Z"/>
  <path class="cls-1" d="m42.95,98.05c-.09,0-.17-.02-.25-.07L1,74.16c-.21-.12-.3-.37-.23-.59.07-.22.3-.37.53-.34l41.7,5.04c.25.03.44.24.44.5v18.78c0,.18-.09.34-.25.43-.08.04-.16.07-.25.07ZM3.65,74.52l38.8,22.17v-17.48l-38.8-4.69Z"/>
</svg>