<?xml version="1.0" encoding="UTF-8"?>
<svg xmlns="http://www.w3.org/2000/svg" xmlns:xlink="http://www.w3.org/1999/xlink" viewBox="0 0 1104.83 800">
  <defs>
    <style>
      .cls-1, .cls-2, .cls-3, .cls-4, .cls-5, .cls-6, .cls-7, .cls-8, .cls-9, .cls-10, .cls-11, .cls-12, .cls-13, .cls-14, .cls-15, .cls-16, .cls-17, .cls-18, .cls-19, .cls-20, .cls-21, .cls-22, .cls-23, .cls-24, .cls-25, .cls-26, .cls-27, .cls-28, .cls-29, .cls-30, .cls-31, .cls-32, .cls-33, .cls-34, .cls-35, .cls-36, .cls-37, .cls-38, .cls-39, .cls-40, .cls-41, .cls-42, .cls-43, .cls-44, .cls-45, .cls-46, .cls-47, .cls-48, .cls-49, .cls-50, .cls-51, .cls-52, .cls-53, .cls-54, .cls-55, .cls-56, .cls-57, .cls-58, .cls-59, .cls-60, .cls-61, .cls-62, .cls-63, .cls-64, .cls-65, .cls-66, .cls-67, .cls-68 {
        stroke-width: 0px;
      }

      .cls-1, .cls-2, .cls-24, .cls-25, .cls-27, .cls-28, .cls-32, .cls-38, .cls-48, .cls-50, .cls-51, .cls-56, .cls-58, .cls-59, .cls-60, .cls-61, .cls-63, .cls-64, .cls-67, .cls-68 {
        mix-blend-mode: screen;
      }

      .cls-1, .cls-2, .cls-30, .cls-31, .cls-45 {
        opacity: .2;
      }

      .cls-2, .cls-24, .cls-27, .cls-28, .cls-38, .cls-50, .cls-56, .cls-60, .cls-63, .cls-64, .cls-66, .cls-67, .cls-68 {
        fill: #fff;
      }

      .cls-3 {
        fill: #72cde0;
      }

      .cls-3, .cls-4, .cls-5, .cls-6, .cls-7, .cls-8, .cls-9, .cls-10, .cls-11, .cls-12, .cls-13, .cls-14, .cls-15, .cls-16, .cls-17, .cls-18, .cls-19, .cls-20, .cls-21, .cls-22, .cls-23, .cls-26, .cls-29, .cls-30, .cls-31, .cls-34, .cls-35, .cls-36, .cls-37, .cls-39, .cls-40, .cls-41, .cls-42, .cls-43, .cls-44, .cls-45, .cls-46, .cls-47, .cls-49, .cls-52, .cls-53, .cls-54, .cls-55, .cls-57, .cls-62 {
        mix-blend-mode: multiply;
      }

      .cls-4 {
        fill: #4c99d3;
      }

      .cls-5 {
        fill: #4d68b0;
      }

      .cls-6 {
        fill: #5d88c6;
      }

      .cls-7 {
        fill: #4d9ad4;
      }

      .cls-8 {
        fill: #5b5ea9;
      }

      .cls-9 {
        fill: #5c5fa9;
      }

      .cls-10 {
        fill: #4878bb;
      }

      .cls-11 {
        fill: #5683c3;
      }

      .cls-12 {
        fill: #5985c4;
      }

      .cls-13 {
        fill: #3c5eaa;
      }

      .cls-14 {
        fill: #3a5da9;
      }

      .cls-15 {
        fill: #3a5ca9;
      }

      .cls-16 {
        fill: #5d60aa;
      }

      .cls-17 {
        fill: #5d5fa9;
      }

      .cls-18 {
        fill: #4a98d2;
      }

      .cls-19 {
        fill: #4979bc;
      }

      .cls-20 {
        fill: #3e60ab;
      }

      .cls-21 {
        fill: #4474b9;
      }

      .cls-22 {
        fill: #4274b8;
      }

      .cls-23 {
        fill: url(#linear-gradient-23);
        opacity: .47;
      }

      .cls-24 {
        opacity: .04;
      }

      .cls-25, .cls-39 {
        opacity: .35;
      }

      .cls-26 {
        fill: url(#linear-gradient-10);
      }

      .cls-26, .cls-57, .cls-61 {
        opacity: .15;
      }

      .cls-27 {
        opacity: .08;
      }

      .cls-28 {
        opacity: .38;
      }

      .cls-29 {
        fill: url(#linear-gradient-4);
      }

      .cls-29, .cls-32 {
        opacity: .18;
      }

      .cls-30 {
        fill: url(#linear-gradient-7);
      }

      .cls-31 {
        fill: url(#linear-gradient-5);
      }

      .cls-33 {
        fill: url(#radial-gradient);
      }

      .cls-34 {
        fill: url(#linear-gradient-21);
      }

      .cls-34, .cls-35, .cls-46, .cls-47, .cls-51, .cls-56 {
        opacity: .3;
      }

      .cls-35 {
        fill: url(#linear-gradient-22);
      }

      .cls-36 {
        fill: url(#linear-gradient-19);
      }

      .cls-36, .cls-37, .cls-48 {
        opacity: .28;
      }

      .cls-37 {
        fill: url(#linear-gradient-20);
      }

      .cls-38 {
        opacity: .07;
      }

      .cls-39 {
        fill: url(#linear-gradient-24);
      }

      .cls-40 {
        fill: url(#linear-gradient-14);
        opacity: .14;
      }

      .cls-41 {
        fill: url(#linear-gradient-8);
      }

      .cls-41, .cls-42, .cls-60 {
        opacity: .1;
      }

      .cls-42 {
        fill: url(#linear-gradient-9);
      }

      .cls-43 {
        fill: url(#linear-gradient-18);
      }

      .cls-43, .cls-44, .cls-59 {
        opacity: .13;
      }

      .cls-44 {
        fill: url(#linear-gradient-16);
      }

      .cls-45 {
        fill: url(#linear-gradient);
      }

      .cls-46 {
        fill: url(#linear-gradient-2);
      }

      .cls-47 {
        fill: url(#linear-gradient-6);
      }

      .cls-49 {
        fill: url(#linear-gradient-3);
      }

      .cls-49, .cls-58 {
        opacity: .26;
      }

      .cls-50 {
        opacity: .06;
      }

      .cls-52 {
        fill: url(#linear-gradient-17);
        opacity: .17;
      }

      .cls-53 {
        fill: url(#linear-gradient-11);
      }

      .cls-53, .cls-54, .cls-55 {
        opacity: .16;
      }

      .cls-54 {
        fill: url(#linear-gradient-12);
      }

      .cls-55 {
        fill: url(#linear-gradient-13);
      }

      .cls-57 {
        fill: #231f20;
      }

      .cls-69 {
        isolation: isolate;
      }

      .cls-62 {
        fill: url(#linear-gradient-15);
        opacity: .09;
      }

      .cls-63 {
        opacity: .31;
      }

      .cls-64 {
        opacity: .11;
      }

      .cls-65 {
        fill: #1a1751;
      }

      .cls-67 {
        opacity: .44;
      }

      .cls-68 {
        opacity: .05;
      }
    </style>
    <radialGradient id="radial-gradient" cx="638.9" cy="612.05" fx="638.9" fy="612.05" r="323.86" gradientTransform="translate(-297.55 -433.85) scale(1.33 1.36)" gradientUnits="userSpaceOnUse">
      <stop offset="0" stop-color="#fff" stop-opacity="0"/>
      <stop offset="1" stop-color="#000"/>
    </radialGradient>
    <linearGradient id="linear-gradient" x1="538.47" y1="440.49" x2="352" y2="575.29" gradientUnits="userSpaceOnUse">
      <stop offset="0" stop-color="#000"/>
      <stop offset="1" stop-color="#fff"/>
    </linearGradient>
    <linearGradient id="linear-gradient-2" x1="542.88" y1="442.93" x2="342.94" y2="341.83" xlink:href="#linear-gradient"/>
    <linearGradient id="linear-gradient-3" x1="533.69" y1="446.83" x2="580.87" y2="267.1" xlink:href="#linear-gradient"/>
    <linearGradient id="linear-gradient-4" x1="532.49" y1="432.82" x2="579.67" y2="686.69" xlink:href="#linear-gradient"/>
    <linearGradient id="linear-gradient-5" x1="535.47" y1="458.85" x2="724.38" y2="458.85" xlink:href="#linear-gradient"/>
    <linearGradient id="linear-gradient-6" x1="664.45" y1="357.6" x2="549.87" y2="263.24" xlink:href="#linear-gradient"/>
    <linearGradient id="linear-gradient-7" x1="641.95" y1="349.63" x2="765.51" y2="547.33" xlink:href="#linear-gradient"/>
    <linearGradient id="linear-gradient-8" x1="645.67" y1="403.49" x2="840.88" y2="403.49" xlink:href="#linear-gradient"/>
    <linearGradient id="linear-gradient-9" x1="645.67" y1="301.94" x2="787.35" y2="301.94" xlink:href="#linear-gradient"/>
    <linearGradient id="linear-gradient-10" x1="646.74" y1="374.11" x2="635.51" y2="113.51" xlink:href="#linear-gradient"/>
    <linearGradient id="linear-gradient-11" x1="482.99" y1="290.92" x2="598.44" y2="290.92" xlink:href="#linear-gradient"/>
    <linearGradient id="linear-gradient-12" x1="515.81" y1="300.3" x2="340.57" y2="349.73" xlink:href="#linear-gradient"/>
    <linearGradient id="linear-gradient-13" x1="519.8" y1="309.99" x2="315.36" y2="256.07" xlink:href="#linear-gradient"/>
    <linearGradient id="linear-gradient-14" x1="513.88" y1="321.51" x2="471.19" y2="117.07" xlink:href="#linear-gradient"/>
    <linearGradient id="linear-gradient-15" x1="510.28" y1="225.33" x2="639.37" y2="225.33" xlink:href="#linear-gradient"/>
    <linearGradient id="linear-gradient-16" x1="395.24" y1="360.2" x2="287.4" y2="241.13" xlink:href="#linear-gradient"/>
    <linearGradient id="linear-gradient-17" x1="262.87" y1="395.96" x2="431.36" y2="421.23" gradientUnits="userSpaceOnUse">
      <stop offset="0" stop-color="#fff"/>
      <stop offset="1" stop-color="#000"/>
    </linearGradient>
    <linearGradient id="linear-gradient-18" x1="377.58" y1="449.16" x2="345.62" y2="573" xlink:href="#linear-gradient"/>
    <linearGradient id="linear-gradient-19" x1="324.39" y1="564.6" x2="365" y2="564.6" xlink:href="#linear-gradient"/>
    <linearGradient id="linear-gradient-20" x1="494.29" y1="528.72" x2="478.56" y2="638.8" xlink:href="#linear-gradient"/>
    <linearGradient id="linear-gradient-21" x1="581.24" y1="653.51" x2="628.44" y2="653.51" xlink:href="#linear-gradient"/>
    <linearGradient id="linear-gradient-22" x1="637.39" y1="521.56" x2="628.41" y2="696.8" xlink:href="#linear-gradient"/>
    <linearGradient id="linear-gradient-23" x1="616.31" y1="487.06" x2="829.74" y2="594.9" xlink:href="#linear-gradient"/>
    <linearGradient id="linear-gradient-24" x1="697.82" y1="464.84" x2="840.88" y2="464.84" xlink:href="#linear-gradient"/>
  </defs>
  <g class="cls-69">
    <g id="Layer_1" data-name="Layer 1">
      <rect class="cls-65" x=".33" width="1104.5" height="800"/>
      <rect class="cls-33" width="1104.81" height="800"/>
      <g>
        <path class="cls-66" d="m840.88,436.28l-80.81-79.24,27.29-107.58-103.38-7.35-44.6-97.61-84.49,53.52-80.29-53.52-44.08,97.61-117.55,11.02,42.18,86.21-4.4,4.57,2.26,5.07-49.34,48.36,54.43,73.38-33.71,104.74,34.21-1.55-.49,1.55,74.04-1.63,47.74,64.43,56.84-16.64,39.68,36.11,4.84-11.89,47.2,43.25,45.49-102.78,98.29-20.22-15.73-78.35,84.39-51.46Z"/>
        <polygon class="cls-4" points="358.1 575.47 397.98 449.93 535.47 442.58 482.99 572.72 358.1 575.47"/>
        <polygon class="cls-10" points="535.47 442.58 482.99 332.38 350.75 343.92 397.98 449.93 535.47 442.58"/>
        <polygon class="cls-10" points="581.65 271.51 482.99 332.38 535.47 442.58 630.98 383.81 581.65 271.51"/>
        <polygon class="cls-11" points="626.78 533.89 535.47 442.58 482.99 572.72 576.4 657.73 626.78 533.89"/>
        <polygon class="cls-7" points="724.38 478.26 630.98 383.81 535.47 442.58 626.78 533.89 724.38 478.26"/>
        <polygon class="cls-13" points="645.67 361.77 598.44 249.47 581.65 271.51 630.98 383.81 645.67 361.77"/>
        <polygon class="cls-5" points="736.98 449.93 645.67 361.77 630.98 383.81 724.38 478.26 736.98 449.93"/>
        <polygon class="cls-18" points="840.88 436.28 760.07 357.04 645.67 361.77 736.98 449.93 840.88 436.28"/>
        <polygon class="cls-19" points="787.35 249.47 760.07 357.04 645.67 361.77 683.98 242.12 787.35 249.47"/>
        <polygon class="cls-21" points="639.37 144.52 598.44 249.47 645.67 361.77 683.98 242.12 639.37 144.52"/>
        <polygon class="cls-17" points="510.28 306.14 598.44 249.47 581.65 271.51 482.99 332.38 510.28 306.14"/>
        <polygon class="cls-9" points="350.75 343.92 376.99 316.64 510.28 306.14 482.99 332.38 350.75 343.92"/>
        <polygon class="cls-6" points="312.97 253.14 376.99 316.64 510.28 306.14 430.52 242.12 312.97 253.14"/>
        <polygon class="cls-8" points="474.6 144.52 430.52 242.12 510.28 306.14 554.88 198.04 474.6 144.52"/>
        <polygon class="cls-16" points="639.37 144.52 554.88 198.04 510.28 306.14 598.44 249.47 639.37 144.52"/>
        <polygon class="cls-5" points="376.99 316.64 312.97 253.14 355.15 339.35 376.99 316.64"/>
        <polygon class="cls-12" points="395.8 445.04 358.1 470.73 303.67 397.35 353.01 348.99 395.8 445.04"/>
        <polygon class="cls-3" points="365 553.73 324.39 575.47 358.1 470.73 395.8 445.04 397.98 449.93 365 553.73"/>
        <polygon class="cls-19" points="358.59 573.92 324.39 575.47 365 553.73 358.59 573.92"/>
        <polygon class="cls-20" points="432.14 573.84 482.99 572.72 536.72 621.62 479.88 638.27 432.14 573.84"/>
        <polygon class="cls-14" points="592.59 617.92 628.44 689.1 581.24 645.84 592.59 617.92"/>
        <polygon class="cls-22" points="652.16 519.42 626.78 533.89 592.59 617.92 628.44 689.1 673.93 586.31 652.16 519.42"/>
        <polygon class="cls-20" points="697.82 493.4 756.49 487.74 772.22 566.09 673.93 586.31 652.16 519.42 697.82 493.4"/>
        <polygon class="cls-15" points="840.88 436.28 736.98 449.93 724.38 478.26 697.82 493.4 756.49 487.74 840.88 436.28"/>
        <polygon class="cls-45" points="358.1 575.47 397.98 449.93 535.47 442.58 482.99 572.72 358.1 575.47"/>
        <polygon class="cls-46" points="535.47 442.58 482.99 332.38 350.75 343.92 397.98 449.93 535.47 442.58"/>
        <polygon class="cls-49" points="581.65 271.51 482.99 332.38 535.47 442.58 630.98 383.81 581.65 271.51"/>
        <polygon class="cls-29" points="626.78 533.89 535.47 442.58 482.99 572.72 576.4 657.73 626.78 533.89"/>
        <polygon class="cls-31" points="724.38 478.26 630.98 383.81 535.47 442.58 626.78 533.89 724.38 478.26"/>
        <polygon class="cls-47" points="645.67 361.77 598.44 249.47 581.65 271.51 630.98 383.81 645.67 361.77"/>
        <polygon class="cls-30" points="736.98 449.93 645.67 361.77 630.98 383.81 724.38 478.26 736.98 449.93"/>
        <polygon class="cls-41" points="840.88 436.28 760.07 357.04 645.67 361.77 736.98 449.93 840.88 436.28"/>
        <polygon class="cls-42" points="787.35 249.47 760.07 357.04 645.67 361.77 683.98 242.12 787.35 249.47"/>
        <polygon class="cls-26" points="639.37 144.52 598.44 249.47 645.67 361.77 683.98 242.12 639.37 144.52"/>
        <polygon class="cls-53" points="510.28 306.14 598.44 249.47 581.65 271.51 482.99 332.38 510.28 306.14"/>
        <polygon class="cls-54" points="350.75 343.92 376.99 316.64 510.28 306.14 482.99 332.38 350.75 343.92"/>
        <polygon class="cls-55" points="312.97 253.14 376.99 316.64 510.28 306.14 430.52 242.12 312.97 253.14"/>
        <polygon class="cls-40" points="474.6 144.52 430.52 242.12 510.28 306.14 554.88 198.04 474.6 144.52"/>
        <polygon class="cls-62" points="639.37 144.52 554.88 198.04 510.28 306.14 598.44 249.47 639.37 144.52"/>
        <polygon class="cls-44" points="376.99 316.64 312.97 253.14 355.15 339.35 376.99 316.64"/>
        <polygon class="cls-52" points="395.8 445.04 358.1 470.73 303.67 397.35 353.01 348.99 395.8 445.04"/>
        <polygon class="cls-43" points="365 553.73 324.39 575.47 358.1 470.73 395.8 445.04 397.98 449.93 365 553.73"/>
        <polygon class="cls-36" points="358.59 573.92 324.39 575.47 365 553.73 358.59 573.92"/>
        <polygon class="cls-37" points="432.14 573.84 482.99 572.72 536.72 621.62 479.88 638.27 432.14 573.84"/>
        <polygon class="cls-34" points="592.59 617.92 628.44 689.1 581.24 645.84 592.59 617.92"/>
        <polygon class="cls-35" points="652.16 519.42 626.78 533.89 592.59 617.92 628.44 689.1 673.93 586.31 652.16 519.42"/>
        <polygon class="cls-23" points="697.82 493.4 756.49 487.74 772.22 566.09 673.93 586.31 652.16 519.42 697.82 493.4"/>
        <polygon class="cls-39" points="840.88 436.28 736.98 449.93 724.38 478.26 697.82 493.4 756.49 487.74 840.88 436.28"/>
        <polygon class="cls-1" points="358.1 575.47 397.98 449.93 535.47 442.58 482.99 572.72 358.1 575.47"/>
        <polygon class="cls-24" points="535.47 442.58 482.99 332.38 350.75 343.92 397.98 449.93 535.47 442.58"/>
        <polygon class="cls-58" points="581.65 271.51 482.99 332.38 535.47 442.58 630.98 383.81 581.65 271.51"/>
        <polygon class="cls-32" points="626.78 533.89 535.47 442.58 482.99 572.72 576.4 657.73 626.78 533.89"/>
        <polygon class="cls-1" points="724.38 478.26 630.98 383.81 535.47 442.58 626.78 533.89 724.38 478.26"/>
        <polygon class="cls-51" points="645.67 361.77 598.44 249.47 581.65 271.51 630.98 383.81 645.67 361.77"/>
        <polygon class="cls-68" points="736.98 449.93 645.67 361.77 630.98 383.81 724.38 478.26 736.98 449.93"/>
        <polygon class="cls-60" points="840.88 436.28 760.07 357.04 645.67 361.77 736.98 449.93 840.88 436.28"/>
        <polygon class="cls-50" points="787.35 249.47 760.07 357.04 645.67 361.77 683.98 242.12 787.35 249.47"/>
        <polygon class="cls-61" points="639.37 144.52 598.44 249.47 645.67 361.77 683.98 242.12 639.37 144.52"/>
        <polygon class="cls-67" points="510.28 306.14 598.44 249.47 581.65 271.51 482.99 332.38 510.28 306.14"/>
        <polygon class="cls-28" points="350.75 343.92 376.99 316.64 510.28 306.14 482.99 332.38 350.75 343.92"/>
        <polygon class="cls-56" points="312.97 253.14 376.99 316.64 510.28 306.14 430.52 242.12 312.97 253.14"/>
        <polygon class="cls-2" points="474.6 144.52 430.52 242.12 510.28 306.14 554.88 198.04 474.6 144.52"/>
        <polygon class="cls-63" points="639.37 144.52 554.88 198.04 510.28 306.14 598.44 249.47 639.37 144.52"/>
        <polygon class="cls-59" points="376.99 316.64 312.97 253.14 355.15 339.35 376.99 316.64"/>
        <polygon class="cls-50" points="395.8 445.04 358.1 470.73 303.67 397.35 353.01 348.99 395.8 445.04"/>
        <polygon class="cls-64" points="365 553.73 324.39 575.47 358.1 470.73 395.8 445.04 397.98 449.93 365 553.73"/>
        <polygon class="cls-48" points="358.59 573.92 324.39 575.47 365 553.73 358.59 573.92"/>
        <polygon class="cls-48" points="432.14 573.84 482.99 572.72 536.72 621.62 479.88 638.27 432.14 573.84"/>
        <polygon class="cls-51" points="592.59 617.92 628.44 689.1 581.24 645.84 592.59 617.92"/>
        <polygon class="cls-38" points="652.16 519.42 626.78 533.89 592.59 617.92 628.44 689.1 673.93 586.31 652.16 519.42"/>
        <polygon class="cls-27" points="697.82 493.4 756.49 487.74 772.22 566.09 673.93 586.31 652.16 519.42 697.82 493.4"/>
        <polygon class="cls-25" points="840.88 436.28 736.98 449.93 724.38 478.26 697.82 493.4 756.49 487.74 840.88 436.28"/>
        <path class="cls-57" d="m841.18,436.38c.02-.06.02-.13,0-.19,0,0,0,0,0-.02,0-.02-.02-.02-.03-.04-.02-.03-.02-.06-.05-.08l-80.68-79.11,27.24-107.4c.02-.09,0-.19-.05-.26-.05-.08-.14-.12-.23-.13l-103.19-7.33-44.53-97.43s-.04-.04-.05-.06c-.01-.02-.02-.04-.04-.05,0,0-.01,0-.02,0-.02-.01-.04-.02-.06-.03-.04-.02-.07-.03-.11-.03,0,0,0,0-.01,0-.04,0-.07.02-.1.03-.02,0-.04,0-.06.02l-84.31,53.41-80.12-53.41c-.08-.05-.17-.07-.26-.04-.09.03-.16.09-.2.17l-44,97.44-117.36,11s-.09.03-.13.05c0,0-.02,0-.03,0,0,0,0,0,0,0-.05.04-.09.09-.11.15,0,0,0,.01,0,.02,0,.02,0,.03,0,.05,0,.05,0,.1.02.14,0,.01,0,.02,0,.03l42.08,86.01-4.24,4.41s0,.02-.01.03c0,.01-.02.02-.03.03-.01.02-.02.05-.02.08,0,.02-.01.03-.01.05,0,.06,0,.11.02.17h0s2.16,4.87,2.16,4.87l-49.18,48.2c-.11.11-.13.29-.03.42l54.33,73.24-33.66,104.58c-.02.05-.01.11,0,.16,0,0,0,.02,0,.02,0,0,0,0,0,0,.02.06.05.12.1.16,0,0,0,0,0,0,.06.04.12.07.2.07h.01l33.75-1.53-.35,1.11c-.03.1-.01.21.05.29.06.08.15.13.26.13h0l73.87-1.62,47.65,64.29c.06.08.16.13.26.13.03,0,.06,0,.09-.01l56.67-16.59,39.54,35.99c.06.05.13.08.21.08.02,0,.05,0,.07,0,.1-.02.19-.09.22-.19l4.67-11.47,46.86,42.95s.02,0,.02,0c.05.04.12.07.19.07h0c.08,0,.14-.04.2-.09.03-.02.04-.04.06-.07,0-.01.02-.02.03-.04l45.43-102.63,98.13-20.19c.17-.04.28-.2.25-.37l-15.68-78.13,84.2-51.34s0-.01.01-.02c.05-.03.08-.08.11-.13,0,0,.01-.01.01-.02,0,0,0,0,0,0Zm-167.59,149.91l-45.17,102.05-11.74-23.31-23.73-47.13,28.51-70.1,5.57-13.7,24.94-14.21,8.89,27.32,12.72,39.08ZM313.68,253.39l116.74-10.94,18.28,14.67,60.76,48.77-90.06,7.09-42.29,3.33-45.51-45.14-17.92-17.77Zm284.68-3.3l46.95,111.63-14.27,21.41-49.02-111.59,16.34-21.45Zm-10.79,13.11l-6.14,8.06-94.66,58.41-1.41.87,25.12-24.15,86.61-55.68-9.52,12.49Zm-104.17,69.29l41.31-25.49,56.79-35.04,14.3,32.56,34.77,79.15-18.93,11.65-76.04,46.79-12.99-27.27-39.21-82.35Zm147.98,51.27l14.34-21.51,90.87,87.74-7.46,16.79-4.85,10.92-27.06-27.37-65.84-66.58Zm105.7,65.82l-90.66-87.54,113.52-4.69,80.25,78.68-103.1,13.54Zm-201.11-6.95l94.95-58.43,87.83,88.82,5.11,5.17-26.2,14.93-45.67,26.02-24.92,14.2-.25.14-90.71-90.71-.14-.14Zm220.41,44.79l-38.84,3.75-18.28,1.76,25.27-14.4s.01-.01.02-.02c.02-.01.03-.03.05-.05.02-.02.04-.04.05-.06,0,0,.01-.01.02-.02l12.52-28.17,19.8-2.6,82.44-10.83-83.04,50.64Zm3.43-130.7l-113.71,4.69,38.09-118.97,102.75,7.3-27.13,106.98Zm-114.19,4.11l-46.84-111.39,40.61-104.13,44.24,96.81-38.01,118.71Zm-47.45-111.59l-2.51,1.62-84.71,54.45,44.18-107.07,83.58-52.95-40.54,103.95Zm-123.45-104.27l79.76,53.17-44.34,107.47-34.2-27.45-45.04-36.15,43.82-97.04Zm-98.19,171.65l-21.31,22.16-41.15-84.11,62.46,61.95Zm.59.3l132.28-10.42-26.56,25.54-23.67,2.07-107.61,9.39,25.57-26.59Zm104.58,15.87l1.09-.09,52.18,109.57-136.79,7.31-46.96-105.39,130.49-11.39Zm-128.81,16.73l4.95,11.11,37.55,84.27-37.23,25.37-54.08-72.91,48.81-47.84Zm5.46,121.39l37.3-25.41,1.97,4.43h0s-15.58,49.04-15.58,49.04l-17.32,54.53-36.65,19.61-3.16,1.69,33.44-103.88Zm-.01,102.68l-32.58,1.47,38.69-20.7-1.53,4.81-4.58,14.42Zm.54.4h0l6.41-20.19,15.76-49.6,17.15-53.99,136.77-7.31-52.21,129.48-124.24,2.73.36-1.12Zm121.11,63.88l-47.24-63.75,50.11-1.1,53.22,48.43-56.09,16.42Zm96.27,19.29l-39.34-35.8s0,0,0,0l-53.57-48.75,38.18-94.69,14.03-34.8,90.75,90.74.07.07-17.71,43.53-32.42,79.69Zm5.34-11.43l11.01-27.06,34.74,69-45.75-41.93Zm92.53-59.81l-13.49-41.45-8.11-24.92,41.36-23.57,4.02-2.29,58.32-5.62,15.61,77.76-97.7,20.1Z"/>
      </g>
    </g>
  </g>
</svg>