<?xml version="1.0" encoding="UTF-8"?>
<svg id="Layer_1" data-name="Layer 1" xmlns="http://www.w3.org/2000/svg" xmlns:xlink="http://www.w3.org/1999/xlink" viewBox="0 0 257.16 218.78">
  <defs>
    <style>
      .cls-1 {
        fill: #34bcb4;
      }

      .cls-2 {
        fill: url(#linear-gradient);
        stroke: #000;
        stroke-miterlimit: 10;
      }
    </style>
    <linearGradient id="linear-gradient" x1="192.57" y1="218.37" x2="66.3" y2="-.34" gradientUnits="userSpaceOnUse">
      <stop offset=".19" stop-color="#004f7f"/>
      <stop offset="1" stop-color="#000415"/>
    </linearGradient>
  </defs>
  <polygon class="cls-2" points="64.85 .5 192.28 .67 256.58 107.51 192.72 218.28 64.51 218.28 .58 107.51 64.85 .5"/>
  <g>
    <path class="cls-1" d="m78.94,88.71l-.17.63c-.1.35-.4.61-.76.65l-54.79,6.24h-12.44s0,0,0-.01l4.54-7.51h63.61Z"/>
    <polygon class="cls-1" points="82.88 74.01 80.23 83.92 18.22 83.92 24.21 74.01 82.88 74.01"/>
    <polygon class="cls-1" points="86.54 60.33 83.8 70.59 26.28 70.59 32.47 60.33 86.54 60.33"/>
    <polygon class="cls-1" points="90.02 47.34 87.37 57.25 34.33 57.25 40.32 47.34 90.02 47.34"/>
    <path class="cls-1" d="m71.33,16.91h-12.62l4.08-6.76c.12-.21.25-.41.38-.62l8.15,7.38Z"/>
    <polygon class="cls-1" points="87.19 31.27 50.03 31.27 57.68 18.62 73.21 18.62 87.19 31.27"/>
    <path class="cls-1" d="m93.02,37.46c-.46.89-.83,1.83-1.1,2.82l-1.25,4.66h-48.9l7.23-11.97h40.08l3.8,3.44c.27.28.31.7.14,1.04Z"/>
    <path class="cls-1" d="m129.27,136.23h6.68l-4.77,1.28c-.3.08-.63,0-.86-.23l-1.05-1.05Z"/>
    <polygon class="cls-1" points="117.99 124.95 178.06 124.95 157.64 130.42 123.46 130.42 117.99 124.95"/>
    <polygon class="cls-1" points="106.37 113.32 187.3 113.32 185.66 119.48 112.52 119.48 106.37 113.32"/>
    <polygon class="cls-1" points="94.4 101.36 190.51 101.36 188.86 107.51 100.55 107.51 94.4 101.36"/>
    <polygon class="cls-1" points="193.9 88.71 191.89 96.23 91.68 96.23 93.69 88.71 193.9 88.71"/>
    <polygon class="cls-1" points="197.84 74.01 195.18 83.92 94.97 83.92 97.63 74.01 197.84 74.01"/>
    <path class="cls-1" d="m161.2,31.27h-7.52l5.44-1.46c.3-.08.63,0,.86.23l1.23,1.23Z"/>
    <path class="cls-1" d="m174.88,44.95h-69.46l.08-.3c.08-.31.32-.55.63-.63l41.17-11.03h15.61l11.97,11.97Z"/>
    <polygon class="cls-1" points="187.19 57.25 102.12 57.25 104.78 47.34 177.27 47.34 187.19 57.25"/>
    <path class="cls-1" d="m199,69.69l-.24.9h-100.21l2.75-10.26h88.97l8.5,8.5c.22.23.31.55.23.86Z"/>
    <path class="cls-1" d="m77.22,212.13h103.8l-.08,2.12h-103.59c-.75,0-1.16-.88-.68-1.46l.55-.66Z"/>
    <polygon class="cls-1" points="86.64 200.85 181.46 200.85 181.32 204.61 83.5 204.61 86.64 200.85"/>
    <polygon class="cls-1" points="95.48 190.25 181.87 190.25 181.72 194.01 92.34 194.01 95.48 190.25"/>
    <polygon class="cls-1" points="105.17 178.62 182.32 178.62 182.17 182.38 102.04 182.38 105.17 178.62"/>
    <polygon class="cls-1" points="114.3 167.68 182.74 167.68 182.58 171.79 110.88 171.79 114.3 167.68"/>
    <polygon class="cls-1" points="123.14 157.08 183.14 157.08 182.99 161.19 119.72 161.19 123.14 157.08"/>
    <polygon class="cls-1" points="154.01 146.14 183.56 146.14 183.41 150.25 138.69 150.25 154.01 146.14"/>
    <path class="cls-1" d="m183.83,139.34l-.05,1.33h-9.35l8.28-2.22c.58-.16,1.14.29,1.12.89Z"/>
    <path class="cls-1" d="m145.84,18.62l-39.5,10.58c-.31.09-.65,0-.87-.24l-11.61-10.34h51.97Z"/>
    <path class="cls-1" d="m178.65,5.17l-19.56,10.11c-.13.09-.29.15-.45.16-.85.06-1.71.21-2.55.43l-3.88,1.04h-60.27l-13.29-11.84c-.54-.56-.14-1.5.64-1.5h98.84c.86,0,1.22,1.1.52,1.61Z"/>
    <path class="cls-1" d="m58.86,200.85l2.06,3.58c.09,0,.18.01.26.03.28-.02.57-.03.86-.02.26,0,.52.05.77.07.06,0,.12,0,.17,0,.17-.03.35-.04.52-.02.16-.04.32-.05.49-.04.1-.02.21-.04.32-.04h.08c.13,0,.25.02.36.04.06,0,.11.02.17.03.05,0,.09-.01.14-.02l3.01-3.61h-9.22Z"/>
    <polygon class="cls-1" points="52.74 190.25 76.92 190.25 73.78 194.01 54.91 194.01 52.74 190.25"/>
    <polygon class="cls-1" points="46.03 178.62 86.62 178.62 83.48 182.38 48.2 182.38 46.03 178.62"/>
    <polygon class="cls-1" points="39.71 167.68 95.74 167.68 92.32 171.79 42.08 171.79 39.71 167.68"/>
    <polygon class="cls-1" points="33.59 157.08 104.59 157.08 101.16 161.19 35.96 161.19 33.59 157.08"/>
    <path class="cls-1" d="m80.43,107.51h-30.32l27.57-3.14c.37-.04.71.15.89.48.51.95,1.14,1.84,1.87,2.66Z"/>
    <path class="cls-1" d="m92.37,119.48H11.88l-3.45-5.98s0,0,0-.01c-.03-.05-.05-.1-.07-.16h77.87l6.15,6.15Z"/>
    <polygon class="cls-1" points="103.31 130.42 18.19 130.42 15.04 124.95 97.84 124.95 103.31 130.42"/>
    <polygon class="cls-1" points="113.57 140.67 24.12 140.67 21.55 136.23 109.12 136.23 113.57 140.67"/>
    <polygon class="cls-1" points="113.71 146.14 110.29 150.25 29.64 150.25 27.27 146.14 113.71 146.14"/>
    <path class="cls-1" d="m195.72,200.85h2.56l-.95,1.64c-.46.8-1.69.45-1.65-.48l.04-1.16Z"/>
    <polygon class="cls-1" points="196.13 190.25 204.4 190.25 202.23 194.01 195.98 194.01 196.13 190.25"/>
    <polygon class="cls-1" points="196.58 178.62 211.11 178.62 208.94 182.38 196.43 182.38 196.58 178.62"/>
    <polygon class="cls-1" points="197 167.68 217.42 167.68 215.06 171.79 196.84 171.79 197 167.68"/>
    <polygon class="cls-1" points="197.4 157.08 223.54 157.08 221.18 161.19 197.25 161.19 197.4 157.08"/>
    <polygon class="cls-1" points="197.82 146.14 229.86 146.14 227.49 150.25 197.67 150.25 197.82 146.14"/>
    <polygon class="cls-1" points="198.21 136.23 235.59 136.23 233.02 140.67 198.04 140.67 198.21 136.23"/>
    <path class="cls-1" d="m198.95,124.95h43.15l-3.16,5.47h-40.51l.16-4.05c0-.06.01-.13.03-.19l.33-1.22Z"/>
    <polygon class="cls-1" points="214.79 83.92 209.93 83.92 210.91 80.28 214.79 83.92"/>
    <polygon class="cls-1" points="227.9 96.23 206.64 96.23 208.65 88.71 219.89 88.71 227.9 96.23"/>
    <polygon class="cls-1" points="239.91 107.51 203.62 107.51 205.26 101.36 233.36 101.36 239.91 107.51"/>
    <path class="cls-1" d="m247.5,115.59l-2.25,3.89h-44.85l1.65-6.15h44.03l1.25,1.17c.3.28.37.73.16,1.09Z"/>
    <path class="cls-1" d="m198.4,16.91h-14.27l9.94-5.28c.43-.31,1.03-.18,1.29.27l3.05,5.01Z"/>
    <polygon class="cls-1" points="207.14 31.27 181.36 31.27 172.95 22.86 180.92 18.62 199.44 18.62 207.14 31.27"/>
    <polygon class="cls-1" points="215.46 44.95 195.03 44.95 183.07 32.98 208.18 32.98 215.46 44.95"/>
    <polygon class="cls-1" points="222.95 57.25 207.34 57.25 197.42 47.34 216.92 47.34 222.95 57.25"/>
    <polygon class="cls-1" points="231.06 70.59 221.41 70.59 210.49 60.33 224.82 60.33 231.06 70.59"/>
    <polygon class="cls-1" points="239.17 83.92 235.61 83.92 225.05 74.01 233.14 74.01 239.17 83.92"/>
  </g>
</svg>